<svg version="1" xmlns="http://www.w3.org/2000/svg" width="2849.333" height="2849.333" viewBox="0 0 2137.000000 2137.000000"><path d="M1020.5 3c-50.6 2.5-99 8-145.9 16.6-256.2 46.9-487.9 188-648.7 395-178.7 230-254.8 520.9-212.3 811.3 39.5 269.7 183.9 516.6 401 685.2 223.9 173.9 505.1 250.7 788.9 215.3 201.1-25 391.6-108.2 549-239.6 47-39.2 95.1-87.3 134.3-134.3 115-137.7 193.1-300.7 227.7-475 14-70.8 19.9-132.5 19.9-209 0-54.3-1.8-85.9-8-135-25-201-108.2-391.6-239.6-549-39.2-47-87.3-95.1-134.3-134.3-137.7-115-300.7-193.1-475-227.7-45.8-9.1-92.1-15.1-143.5-18.5-21.3-1.5-91.6-2-113.5-1zM741 376.4c25.2 1.3 56.2 10.1 80.7 23.1C882.8 431.8 923.4 491 932 560c.6 5.3 1 40.3 1 93.5v85l10.9 10.9 10.9 10.9 2.4-1.9c1.3-1 81.1-75 177.3-164.4 96.2-89.4 178.3-165.4 182.4-168.8 29.4-24.6 68.2-41.2 108.1-46.2 12.5-1.5 39.2-1.2 52.2.6 37.6 5.2 74 20.8 102.8 44.1 9.8 7.9 28.1 26.8 35.2 36.3 50.4 67.4 56.5 156.9 15.4 228.8-8.3 14.6-15.5 24.5-27.3 37.5-5.4 5.9-86.2 81.5-179.5 168.2-93.3 86.6-169.9 157.8-170.2 158.3-.3.5 81.1 81.3 180.9 179.6 99.8 98.3 184.6 182.4 188.4 186.9 43.1 51.2 58.7 121.2 41.6 187.1-18.2 69.7-73.5 126.5-142.9 146.6-35.5 10.2-75.5 10.9-110.1 1.9-28.9-7.5-56.9-21.6-80-40.2-4.4-3.6-92.6-89.8-196-191.6S947.2 1338 946.9 1338c-.3 0-3.6 2.7-7.3 6.1l-6.6 6.1v109.2c0 70-.4 112.2-1 117.6-3.8 30.1-14.3 60.4-29.5 84.9-33.8 54.5-89 90-152.5 98.1-12.9 1.6-41 1.3-54.2-.6-36.9-5.3-71.8-20.3-100.8-43.4-10.5-8.4-28.8-27-36.2-37-21.7-28.9-34.7-60.1-40.5-97-1.7-11-1.8-34.1-1.8-513.5s.1-502.5 1.8-513.5c7.3-46.2 25.7-83.6 57.1-115.9 31.8-32.6 70.2-52.9 114.6-60.7 9.3-1.6 31.6-3.2 37.5-2.7 1.7.1 7.7.5 13.5.7z"/></svg>