<?xml version="1.0" encoding="utf-8"?>
<!-- Generator: Adobe Illustrator 23.0.5, SVG Export Plug-In . SVG Version: 6.00 Build 0)  -->
<svg version="1.1" id="Слой_1" xmlns="http://www.w3.org/2000/svg" xmlns:xlink="http://www.w3.org/1999/xlink" x="0px" y="0px"
	 viewBox="0 0 512 512" style="enable-background:new 0 0 512 512;" xml:space="preserve">
<style type="text/css">
	.st0{fill:#FF9000;}
</style>
<g>
	<path class="st0" d="M256,18c32.1,0,63.3,6.3,92.6,18.7c28.3,12,53.8,29.1,75.7,51s39,47.3,51,75.7c12.4,29.3,18.7,60.5,18.7,92.6
		s-6.3,63.3-18.7,92.6c-12,28.3-29.1,53.8-51,75.7s-47.3,39-75.7,51C319.3,487.7,288.1,494,256,494s-63.3-6.3-92.6-18.7
		c-28.3-12-53.8-29.1-75.7-51s-39-47.3-51-75.7C24.3,319.3,18,288.1,18,256s6.3-63.3,18.7-92.6c12-28.3,29.1-53.8,51-75.7
		s47.3-39,75.7-51C192.7,24.3,223.9,18,256,18 M256,0C114.6,0,0,114.6,0,256s114.6,256,256,256s256-114.6,256-256S397.4,0,256,0
		L256,0z"/>
</g>
<g>
	<path class="st0" d="M256,48c57.9,0,105,47.1,105,105s-47.1,105-105,105s-105-47.1-105-105S198.1,48,256,48 M256,30
		c-67.9,0-123,55.1-123,123s55.1,123,123,123s123-55.1,123-123S323.9,30,256,30L256,30z"/>
</g>
<g>
	<path class="st0" d="M256,279c24.6,0,48.4,3.1,70.8,9.2c21.3,5.8,40.4,14.1,56.6,24.6c31.3,20.3,48.6,46.4,48.6,73.6
		s-17.3,53.4-48.6,73.6c-16.3,10.5-35.3,18.8-56.6,24.6c-22.4,6.1-46.2,9.2-70.8,9.2s-48.4-3.1-70.8-9.2
		c-21.3-5.8-40.4-14.1-56.6-24.6C97.3,439.9,80,413.7,80,386.5s17.3-53.4,48.6-73.6c16.3-10.5,35.3-18.8,56.6-24.6
		C207.6,282.1,231.4,279,256,279 M256,261c-107.1,0-194,56.2-194,125.5S148.9,512,256,512s194-56.2,194-125.5S363.1,261,256,261
		L256,261z"/>
</g>
</svg>
